<?xml version="1.0" standalone="no"?>
<!DOCTYPE svg PUBLIC "-//W3C//DTD SVG 20010904//EN"
 "http://www.w3.org/TR/2001/REC-SVG-20010904/DTD/svg10.dtd">
<svg version="1.0" xmlns="http://www.w3.org/2000/svg"
 width="265.000000pt" height="265.000000pt" viewBox="0 0 265.000000 265.000000"
 preserveAspectRatio="xMidYMid meet">

<g transform="translate(0.000000,265.000000) scale(0.100000,-0.100000)"
fill="#ffffff" stroke="none">
<path d="M1145 2484 c-159 -35 -334 -73 -389 -86 -54 -12 -104 -28 -112 -36
-11 -11 -14 -79 -14 -367 l0 -354 -47 27 c-111 62 -258 14 -316 -103 -54 -109
-5 -251 106 -304 49 -24 139 -28 184 -9 52 22 101 68 125 116 23 47 23 49 26
498 l3 451 347 75 347 75 3 -325 c1 -179 1 -326 -1 -328 -2 -2 -25 8 -52 22
-42 22 -61 25 -120 22 -91 -4 -150 -42 -189 -120 -114 -228 170 -444 355 -271
80 75 79 69 79 599 0 448 -1 464 -19 474 -11 5 -21 10 -23 9 -2 0 -133 -29
-293 -65z m174 -709 c99 -51 117 -177 36 -255 -31 -30 -42 -34 -98 -38 -76 -4
-116 17 -147 77 -55 109 18 231 138 231 24 0 56 -7 71 -15z m-779 -167 c83
-42 113 -131 74 -214 -45 -94 -191 -113 -258 -33 -55 64 -53 148 4 213 50 56
112 68 180 34z"/>
<path d="M2026 2155 c-3 -9 -6 -174 -6 -366 0 -192 -1 -349 -2 -349 -2 0 -25
11 -52 25 -177 90 -373 -68 -325 -261 18 -68 95 -145 163 -163 116 -29 245 39
276 146 7 26 10 190 8 508 l-3 470 -26 3 c-17 2 -29 -3 -33 -13z m-86 -754
c92 -49 106 -195 25 -259 -70 -56 -153 -51 -214 12 -56 58 -60 146 -9 211 42
54 133 71 198 36z"/>
<path d="M986 1194 c-3 -9 -6 -175 -6 -370 l0 -355 -27 19 c-88 61 -213 52
-291 -21 -89 -83 -89 -251 0 -334 36 -34 108 -63 158 -63 92 0 197 76 220 160
6 20 10 214 10 458 l0 423 61 -48 c74 -57 151 -142 176 -192 27 -54 22 -173
-11 -285 -28 -94 -24 -120 17 -114 24 4 48 68 73 192 19 94 13 180 -16 242
-30 61 -128 164 -228 239 -87 65 -125 79 -136 49z m-78 -761 c51 -38 67 -70
67 -133 0 -63 -16 -95 -69 -134 -43 -33 -132 -29 -178 6 -127 97 -52 298 105
285 27 -2 60 -13 75 -24z"/>
<path d="M2205 714 c-107 -98 -149 -106 -254 -47 -58 33 -74 38 -131 37 -81 0
-130 -24 -212 -102 -63 -60 -73 -94 -30 -100 17 -3 38 11 78 48 56 53 122 89
164 90 14 0 63 -19 109 -42 131 -65 179 -59 300 42 63 53 80 82 61 105 -19 23
-31 18 -85 -31z"/>
</g>
</svg>
